<svg width="64" height="64" viewBox="0 0 64 64" xmlns="http://www.w3.org/2000/svg" role="img" aria-label="AI Tutor mark">
  <defs>
    <linearGradient id="g" x1="0" y1="0" x2="1" y2="1">
      <stop offset="0%" stop-color="#FF9E66"/>
      <stop offset="100%" stop-color="#FF6B35"/>
    </linearGradient>
  </defs>
  <rect rx="14" ry="14" width="64" height="64" fill="url(#g)"/>
  <path d="M20 32a12 12 0 1 1 24 0 12 12 0 0 1-24 0zm6 0a6 6 0 1 0 12 0 6 6 0 0 0-12 0z" fill="#fff"/>
</svg>

<svg width="264" height="265" viewBox="0 0 264 265" fill="none" xmlns="http://www.w3.org/2000/svg">
<path fill-rule="evenodd" clip-rule="evenodd" d="M10.7045 40.3495C0.121094 58.6806 0.121094 83.2908 0.121094 132.511C0.121094 181.732 0.121094 206.342 10.7045 224.673C17.6379 236.682 27.6101 246.654 39.619 253.588C57.9501 264.171 82.5604 264.171 131.781 264.171C181.001 264.171 205.612 264.171 223.943 253.588C235.952 246.654 245.924 236.682 252.857 224.673C263.441 206.342 263.441 181.732 263.441 132.511C263.441 83.2908 263.441 58.6806 252.857 40.3495C245.924 28.3406 235.952 18.3683 223.943 11.435C205.612 0.851562 181.001 0.851562 131.781 0.851562C82.5604 0.851562 57.9501 0.851562 39.619 11.435C27.6101 18.3683 17.6379 28.3406 10.7045 40.3495ZM131.781 229.062C185.104 229.062 228.331 185.835 228.331 132.511C228.331 79.188 185.104 35.9608 131.781 35.9608C78.4575 35.9608 35.2304 79.188 35.2304 132.511C35.2304 185.835 78.4575 229.062 131.781 229.062Z" fill="#FF7228"/>
<path d="M175.668 88.6289L153.246 140.945C150.739 146.805 146.071 151.473 140.211 153.981L87.8945 176.402L110.316 124.086C112.824 118.226 117.492 113.558 123.351 111.05L175.668 88.6289Z" fill="#FF7228"/>
<path fill-rule="evenodd" clip-rule="evenodd" d="M182.253 82.0399C184.945 84.7322 185.727 88.7922 184.227 92.2918L161.808 144.604C161.807 144.605 161.806 144.606 161.806 144.607L161.806 144.608C158.356 152.665 151.937 159.085 143.88 162.534L143.879 162.535C143.878 162.535 143.876 162.536 143.875 162.536L91.5633 184.955C88.0637 186.455 84.0037 185.673 81.3114 182.981C78.6192 180.289 77.8373 176.229 79.3371 172.729L101.758 120.413C105.208 112.356 111.627 105.937 119.684 102.487L172.001 80.0656C175.5 78.5658 179.56 79.3477 182.253 82.0399ZM157.941 106.352L127.016 119.605C123.357 121.171 120.443 124.086 118.877 127.744L105.623 158.669L136.548 145.416C140.207 143.85 143.121 140.936 144.687 137.277L157.941 106.352Z" fill="#FF7228"/>
</svg>
